<svg xmlns="http://www.w3.org/2000/svg" xml:space="preserve" width="800" height="800" viewBox="0 0 512 512"><path d="M463.282 184.122a23.278 23.278 0 0 0-21.102-13.456H313.909l85.845-134.899A23.271 23.271 0 0 0 380.12 0H240.484a23.268 23.268 0 0 0-20.14 11.612L49.678 306.398a23.274 23.274 0 0 0 20.14 34.934h140.196l-38.529 141.27c-2.875 10.539 1.969 21.659 11.643 26.734a23.212 23.212 0 0 0 10.8 2.664 23.258 23.258 0 0 0 17.811-8.283l44.26-52.557 203.983-242.23a23.272 23.272 0 0 0 3.3-24.808z" style="fill:#f2d23d"/><path d="M183.128 509.336a23.212 23.212 0 0 0 10.8 2.664 23.258 23.258 0 0 0 17.811-8.283l44.26-52.557V0h-15.515a23.27 23.27 0 0 0-20.14 11.612L49.678 306.398a23.274 23.274 0 0 0 20.14 34.934h140.196l-38.529 141.27c-2.873 10.539 1.969 21.659 11.643 26.734z" style="fill:#eebf00"/></svg>